<svg xmlns="http://www.w3.org/2000/svg" viewBox="0 0 64 64" role="img" aria-label="이음">
  <path fill="#DC6F4F" fill-rule="evenodd"
        d="M 20,5.5
           L 44,5
           C 52,5 59,12 59,20
           L 59,43.5
           C 59,52 51.5,59 44,59
           L 20.5,59
           C 12,59 5,51.5 5,44
           L 5,20.5
           C 5,12 12.5,5 20,5.5
           Z
           M 10,25 A 14,14 0 1,0 38,25 A 14,14 0 1,0 10,25 Z
           M 16.5,25 A 7.5,7.5 0 1,0 31.5,25 A 7.5,7.5 0 1,0 16.5,25 Z
           M 26,39 A 14,14 0 1,0 54,39 A 14,14 0 1,0 26,39 Z
           M 32.5,39 A 7.5,7.5 0 1,0 47.5,39 A 7.5,7.5 0 1,0 32.5,39 Z" />
</svg>
